<?xml version="1.0" encoding="UTF-8"?>
<svg width="700pt" height="700pt" version="1.1" viewBox="0 0 700 700" xmlns="http://www.w3.org/2000/svg" xmlns:xlink="http://www.w3.org/1999/xlink">
 <defs>
  <symbol id="s" overflow="visible">
   <path d="m2.8594-0.17188c-0.14844 0.074219-0.30469 0.13281-0.46875 0.17188-0.15625 0.039062-0.32422 0.0625-0.5 0.0625-0.51172 0-0.91797-0.14453-1.2188-0.4375-0.30469-0.28906-0.45312-0.67969-0.45312-1.1719 0-0.5 0.14844-0.89453 0.45312-1.1875 0.30078-0.28906 0.70703-0.4375 1.2188-0.4375 0.17578 0 0.34375 0.023437 0.5 0.0625 0.16406 0.042969 0.32031 0.10156 0.46875 0.17188v0.64062c-0.14844-0.09375-0.29297-0.16016-0.4375-0.20312-0.14844-0.050781-0.29688-0.078125-0.45312-0.078125-0.29297 0-0.52344 0.09375-0.6875 0.28125-0.15625 0.17969-0.23438 0.42969-0.23438 0.75 0 0.3125 0.078125 0.5625 0.23438 0.75 0.16406 0.1875 0.39453 0.28125 0.6875 0.28125 0.15625 0 0.30469-0.019531 0.45312-0.0625 0.14453-0.050781 0.28906-0.12891 0.4375-0.23438z"/>
  </symbol>
  <symbol id="c" overflow="visible">
   <path d="m2.0938-1.7031c-0.0625-0.03125-0.13281-0.050781-0.20312-0.0625-0.0625-0.007813-0.125-0.015625-0.1875-0.015625-0.1875 0-0.33594 0.0625-0.4375 0.1875-0.10547 0.11719-0.15625 0.28906-0.15625 0.51562v1.0781h-0.75v-2.3281h0.75v0.375c0.09375-0.14453 0.20312-0.25391 0.32812-0.32812 0.125-0.070312 0.26953-0.10938 0.4375-0.10938 0.03125 0 0.054688 0.007813 0.078125 0.015625h0.14062z"/>
  </symbol>
  <symbol id="a" overflow="visible">
   <path d="m2.6875-1.1719v0.21875h-1.75c0.019531 0.16797 0.082031 0.29688 0.1875 0.39062 0.11328 0.085938 0.26953 0.125 0.46875 0.125 0.15625 0 0.3125-0.019531 0.46875-0.0625 0.16406-0.050781 0.33594-0.125 0.51562-0.21875v0.57812c-0.17969 0.0625-0.35547 0.10938-0.53125 0.14062-0.17969 0.039062-0.35547 0.0625-0.53125 0.0625-0.41797 0-0.74609-0.10156-0.98438-0.3125-0.23047-0.21875-0.34375-0.52344-0.34375-0.92188 0-0.375 0.11328-0.67188 0.34375-0.89062 0.22656-0.21875 0.54688-0.32812 0.95312-0.32812 0.36328 0 0.65625 0.10938 0.875 0.32812s0.32812 0.51562 0.32812 0.89062zm-0.76562-0.25c0-0.14453-0.042969-0.25781-0.125-0.34375-0.085937-0.082031-0.19531-0.125-0.32812-0.125-0.14844 0-0.26562 0.042969-0.35938 0.125-0.085937 0.074219-0.13672 0.1875-0.15625 0.34375z"/>
  </symbol>
  <symbol id="j" overflow="visible">
   <path d="m1.4062-1.0469c-0.15625 0-0.27734 0.027344-0.35938 0.078125-0.074219 0.054688-0.10938 0.13281-0.10938 0.23438 0 0.09375 0.03125 0.16797 0.09375 0.21875 0.0625 0.054687 0.14844 0.078125 0.26562 0.078125 0.13281 0 0.25-0.046875 0.34375-0.14062 0.10156-0.10156 0.15625-0.23438 0.15625-0.39062v-0.078125zm1.1406-0.28125v1.3281h-0.75v-0.34375c-0.10547 0.13672-0.21875 0.24219-0.34375 0.3125-0.125 0.0625-0.27734 0.09375-0.45312 0.09375-0.24219 0-0.4375-0.066406-0.59375-0.20312-0.14844-0.14453-0.21875-0.33203-0.21875-0.5625 0-0.26953 0.09375-0.46875 0.28125-0.59375 0.1875-0.13281 0.48438-0.20312 0.89062-0.20312h0.4375v-0.046875c0-0.125-0.046875-0.21094-0.14062-0.26562-0.09375-0.050781-0.24219-0.078125-0.4375-0.078125-0.15625 0-0.30859 0.015625-0.45312 0.046875-0.13672 0.03125-0.26172 0.078125-0.375 0.14062v-0.5625c0.15625-0.039063 0.3125-0.070313 0.46875-0.09375 0.16406-0.019531 0.33203-0.03125 0.5-0.03125 0.41406 0 0.71875 0.085937 0.90625 0.25 0.1875 0.16797 0.28125 0.4375 0.28125 0.8125z"/>
  </symbol>
  <symbol id="b" overflow="visible">
   <path d="m1.1719-3v0.67188h0.76562v0.53125h-0.76562v0.98438c0 0.11719 0.019531 0.19531 0.0625 0.23438 0.039063 0.03125 0.12891 0.046875 0.26562 0.046875h0.375v0.53125h-0.64062c-0.29297 0-0.5-0.0625-0.625-0.1875s-0.1875-0.33203-0.1875-0.625v-0.98438h-0.35938v-0.53125h0.35938v-0.67188z"/>
  </symbol>
  <symbol id="i" overflow="visible">
   <path d="m1.9531-1.9844v-1.25h0.73438v3.2344h-0.73438v-0.34375c-0.10547 0.14844-0.21875 0.25-0.34375 0.3125s-0.27344 0.09375-0.4375 0.09375c-0.28125 0-0.51562-0.11328-0.70312-0.34375-0.1875-0.22656-0.28125-0.52344-0.28125-0.89062 0-0.35156 0.09375-0.64453 0.28125-0.875 0.1875-0.22656 0.42188-0.34375 0.70312-0.34375 0.16406 0 0.3125 0.039063 0.4375 0.10938 0.125 0.0625 0.23828 0.16406 0.34375 0.29688zm-0.5 1.5c0.15625 0 0.27344-0.054687 0.35938-0.17188 0.09375-0.11328 0.14062-0.28516 0.14062-0.51562 0-0.21875-0.046875-0.38281-0.14062-0.5-0.085938-0.11328-0.20312-0.17188-0.35938-0.17188s-0.27734 0.058594-0.35938 0.17188c-0.085938 0.11719-0.125 0.28125-0.125 0.5 0 0.23047 0.039062 0.40234 0.125 0.51562 0.082031 0.11719 0.20312 0.17188 0.35938 0.17188z"/>
  </symbol>
  <symbol id="h" overflow="visible">
   <path d="m1.5938-0.48438c0.16406 0 0.28906-0.054687 0.375-0.17188 0.082031-0.11328 0.125-0.28516 0.125-0.51562 0-0.21875-0.042969-0.38281-0.125-0.5-0.085938-0.11328-0.21094-0.17188-0.375-0.17188-0.15625 0-0.27734 0.058594-0.35938 0.17188-0.085937 0.11719-0.125 0.28125-0.125 0.5 0 0.23047 0.039063 0.40234 0.125 0.51562 0.082031 0.11719 0.20312 0.17188 0.35938 0.17188zm-0.48438-1.5c0.10156-0.13281 0.21875-0.23438 0.34375-0.29688 0.125-0.070312 0.26562-0.10938 0.42188-0.10938 0.28906 0 0.52344 0.11719 0.70312 0.34375 0.1875 0.23047 0.28125 0.52344 0.28125 0.875 0 0.36719-0.09375 0.66406-0.28125 0.89062-0.17969 0.23047-0.41406 0.34375-0.70312 0.34375-0.15625 0-0.29688-0.03125-0.42188-0.09375-0.125-0.070312-0.24219-0.17578-0.34375-0.3125v0.34375h-0.75v-3.2344h0.75z"/>
  </symbol>
  <symbol id="e" overflow="visible">
   <path d="m0.046875-2.3281h0.75l0.625 1.5781 0.53125-1.5781h0.75l-0.98438 2.5469c-0.09375 0.25781-0.21094 0.44141-0.34375 0.54688-0.125 0.10156-0.29688 0.15625-0.51562 0.15625h-0.4375v-0.48438h0.23438c0.125 0 0.21094-0.023438 0.26562-0.0625 0.0625-0.042969 0.11328-0.11719 0.15625-0.21875l0.015625-0.0625z"/>
  </symbol>
  <symbol id="g" overflow="visible">
   <path d="m1.1094-0.34375v1.2344h-0.75v-3.2188h0.75v0.34375c0.10156-0.13281 0.21875-0.23438 0.34375-0.29688 0.125-0.070312 0.26562-0.10938 0.42188-0.10938 0.28906 0 0.52344 0.11719 0.70312 0.34375 0.1875 0.23047 0.28125 0.52344 0.28125 0.875 0 0.36719-0.09375 0.66406-0.28125 0.89062-0.17969 0.23047-0.41406 0.34375-0.70312 0.34375-0.15625 0-0.29688-0.03125-0.42188-0.09375-0.125-0.070312-0.24219-0.17578-0.34375-0.3125zm0.48438-1.5c-0.15625 0-0.27734 0.058594-0.35938 0.17188-0.085937 0.11719-0.125 0.28125-0.125 0.5 0 0.23047 0.039063 0.40234 0.125 0.51562 0.082031 0.11719 0.20312 0.17188 0.35938 0.17188 0.16406 0 0.28906-0.054687 0.375-0.17188 0.082031-0.11328 0.125-0.28516 0.125-0.51562 0-0.21875-0.042969-0.38281-0.125-0.5-0.085938-0.11328-0.21094-0.17188-0.375-0.17188z"/>
  </symbol>
  <symbol id="f" overflow="visible">
   <path d="m0.35938-2.3281h0.75v2.2812c0 0.3125-0.078125 0.55078-0.23438 0.71875-0.14844 0.16406-0.35938 0.25-0.64062 0.25h-0.375v-0.48438h0.125c0.14453 0 0.24219-0.039062 0.29688-0.10938 0.050781-0.0625 0.078125-0.1875 0.078125-0.375zm0-0.90625h0.75v0.60938h-0.75z"/>
  </symbol>
  <symbol id="r" overflow="visible">
   <path d="m1.8906-3.2344v0.48438h-0.40625c-0.10547 0-0.17969 0.023438-0.21875 0.0625-0.042969 0.03125-0.0625 0.09375-0.0625 0.1875v0.17188h0.625v0.53125h-0.625v1.7969h-0.75v-1.7969h-0.375v-0.53125h0.375v-0.17188c0-0.25 0.066406-0.42969 0.20312-0.54688 0.14453-0.125 0.36719-0.1875 0.67188-0.1875z"/>
  </symbol>
  <symbol id="d" overflow="visible">
   <path d="m1.4688-1.8594c-0.16797 0-0.29688 0.0625-0.39062 0.1875-0.085937 0.11719-0.125 0.28125-0.125 0.5 0 0.23047 0.039063 0.40625 0.125 0.53125 0.09375 0.11719 0.22266 0.17188 0.39062 0.17188 0.16406 0 0.28906-0.054688 0.375-0.17188 0.082031-0.125 0.125-0.30078 0.125-0.53125 0-0.21875-0.042969-0.38281-0.125-0.5-0.085938-0.125-0.21094-0.1875-0.375-0.1875zm0-0.53125c0.40625 0 0.71875 0.10938 0.9375 0.32812 0.22656 0.21875 0.34375 0.51562 0.34375 0.89062 0 0.38672-0.11719 0.6875-0.34375 0.90625-0.21875 0.21875-0.53125 0.32812-0.9375 0.32812s-0.72656-0.10938-0.95312-0.32812c-0.21875-0.21875-0.32812-0.51953-0.32812-0.90625 0-0.375 0.10938-0.67188 0.32812-0.89062 0.22656-0.21875 0.54688-0.32812 0.95312-0.32812z"/>
  </symbol>
  <symbol id="q" overflow="visible">
   <path d="m2.5156-1.9531c0.09375-0.13281 0.20312-0.23828 0.32812-0.3125 0.13281-0.082031 0.28125-0.125 0.4375-0.125 0.26953 0 0.47266 0.085937 0.60938 0.25 0.14453 0.16797 0.21875 0.40625 0.21875 0.71875v1.4219h-0.75v-1.2188-0.046875-0.09375c0-0.16406-0.027344-0.28516-0.078125-0.35938-0.042969-0.070312-0.12109-0.10938-0.23438-0.10938-0.13672 0-0.24609 0.058594-0.32812 0.17188-0.074219 0.11719-0.10938 0.28906-0.10938 0.51562v1.1406h-0.75v-1.2188c0-0.25781-0.027344-0.42578-0.078125-0.5-0.042969-0.070312-0.12109-0.10938-0.23438-0.10938-0.13672 0-0.24609 0.0625-0.32812 0.1875-0.074219 0.11719-0.10938 0.28125-0.10938 0.5v1.1406h-0.75v-2.3281h0.75v0.34375c0.082031-0.13281 0.17969-0.23438 0.29688-0.29688 0.125-0.070312 0.25781-0.10938 0.40625-0.10938 0.15625 0 0.29688 0.042969 0.42188 0.125 0.125 0.074219 0.21875 0.17969 0.28125 0.3125z"/>
  </symbol>
  <symbol id="p" overflow="visible">
   <path d="m2.7031-1.4219v1.4219h-0.75v-1.0781c0-0.20703-0.007813-0.34766-0.015625-0.42188-0.011719-0.082031-0.027344-0.14062-0.046875-0.17188-0.03125-0.050781-0.074219-0.085937-0.125-0.10938-0.042969-0.03125-0.09375-0.046875-0.15625-0.046875-0.15625 0-0.28125 0.0625-0.375 0.1875-0.085937 0.11719-0.125 0.28125-0.125 0.5v1.1406h-0.75v-3.2344h0.75v1.25c0.10156-0.13281 0.21875-0.23438 0.34375-0.29688 0.13281-0.070312 0.27344-0.10938 0.42188-0.10938 0.26953 0 0.47266 0.085937 0.60938 0.25 0.14453 0.16797 0.21875 0.40625 0.21875 0.71875z"/>
  </symbol>
  <symbol id="o" overflow="visible">
   <path d="m0.39062-3.1094h0.89062l1.1406 2.125v-2.125h0.75v3.1094h-0.89062l-1.125-2.1406v2.1406h-0.76562z"/>
  </symbol>
  <symbol id="n" overflow="visible">
   <path d="m0.32812-0.90625v-1.4219h0.75v0.23438 0.46875 0.39062c0 0.1875 0.003906 0.32422 0.015625 0.40625 0.007812 0.074219 0.023438 0.13281 0.046875 0.17188 0.03125 0.054688 0.070313 0.09375 0.125 0.125 0.050781 0.023438 0.10938 0.03125 0.17188 0.03125 0.15625 0 0.27344-0.054688 0.35938-0.17188 0.09375-0.125 0.14062-0.29688 0.14062-0.51562v-1.1406h0.73438v2.3281h-0.73438v-0.34375c-0.11719 0.13672-0.23438 0.24219-0.35938 0.3125-0.125 0.0625-0.26562 0.09375-0.42188 0.09375-0.27344 0-0.48047-0.082031-0.625-0.25-0.13672-0.16406-0.20312-0.40625-0.20312-0.71875z"/>
  </symbol>
  <symbol id="m" overflow="visible">
   <path d="m2.7031-1.4219v1.4219h-0.75v-1.0938c0-0.19531-0.007813-0.33203-0.015625-0.40625-0.011719-0.082031-0.027344-0.14062-0.046875-0.17188-0.03125-0.050781-0.074219-0.085937-0.125-0.10938-0.042969-0.03125-0.09375-0.046875-0.15625-0.046875-0.15625 0-0.28125 0.0625-0.375 0.1875-0.085937 0.11719-0.125 0.28125-0.125 0.5v1.1406h-0.75v-2.3281h0.75v0.34375c0.10156-0.13281 0.21875-0.23438 0.34375-0.29688 0.13281-0.070312 0.27344-0.10938 0.42188-0.10938 0.26953 0 0.47266 0.085937 0.60938 0.25 0.14453 0.16797 0.21875 0.40625 0.21875 0.71875z"/>
  </symbol>
  <symbol id="l" overflow="visible">
   <path d="m0.39062-3.1094h1.3281c0.39453 0 0.69531 0.089844 0.90625 0.26562 0.21875 0.17969 0.32812 0.42969 0.32812 0.75 0 0.32422-0.10938 0.57422-0.32812 0.75-0.21094 0.17969-0.51172 0.26562-0.90625 0.26562h-0.53125v1.0781h-0.79688zm0.79688 0.57812v0.875h0.45312c0.15625 0 0.27344-0.035156 0.35938-0.10938 0.082031-0.082031 0.125-0.19141 0.125-0.32812 0-0.13281-0.042969-0.23828-0.125-0.3125-0.085938-0.082031-0.20312-0.125-0.35938-0.125z"/>
  </symbol>
  <symbol id="k" overflow="visible">
   <path d="m2.25-2.2656v0.60938c-0.10547-0.0625-0.21094-0.10938-0.3125-0.14062-0.10547-0.039063-0.21094-0.0625-0.3125-0.0625-0.21094 0-0.375 0.0625-0.5 0.1875-0.11719 0.125-0.17188 0.29297-0.17188 0.5 0 0.21875 0.054687 0.39062 0.17188 0.51562 0.125 0.125 0.28906 0.1875 0.5 0.1875 0.11328 0 0.22266-0.015625 0.32812-0.046875 0.10156-0.039063 0.20312-0.09375 0.29688-0.15625v0.60938c-0.125 0.042969-0.25 0.070312-0.375 0.09375-0.11719 0.019531-0.23047 0.03125-0.34375 0.03125-0.42969 0-0.76172-0.10938-1-0.32812-0.23047-0.21875-0.34375-0.51953-0.34375-0.90625 0-0.375 0.11328-0.67188 0.34375-0.89062 0.23828-0.21875 0.57031-0.32812 1-0.32812 0.11328 0 0.22656 0.011719 0.34375 0.03125 0.125 0.023437 0.25 0.054687 0.375 0.09375z"/>
  </symbol>
 </defs>
 <g>
  <path d="m350 0c154.64 0 280 125.36 280 280s-125.36 280-280 280-280-125.36-280-280 125.36-280 280-280zm0 99.035c53.68 0 97.203 43.516 97.203 97.191 0 53.68-43.523 97.203-97.203 97.203s-97.191-43.523-97.191-97.203c0-53.68 43.516-97.191 97.191-97.191zm0 217.68h28.199c59.375 0 140.09 48.578 140.09 107.95v22.172h-336.58v-22.172c0-59.375 80.711-107.95 140.09-107.95z" fill-rule="evenodd"/>
  <use x="70" y="572.789062" xlink:href="#s"/>
  <use x="73.128906" y="572.789062" xlink:href="#c"/>
  <use x="75.230469" y="572.789062" xlink:href="#a"/>
  <use x="78.125" y="572.789062" xlink:href="#j"/>
  <use x="81" y="572.789062" xlink:href="#b"/>
  <use x="83.039062" y="572.789062" xlink:href="#a"/>
  <use x="85.929688" y="572.789062" xlink:href="#i"/>
  <use x="90.464844" y="572.789062" xlink:href="#h"/>
  <use x="93.519531" y="572.789062" xlink:href="#e"/>
  <use x="97.78125" y="572.789062" xlink:href="#g"/>
  <use x="100.835938" y="572.789062" xlink:href="#a"/>
  <use x="103.726562" y="572.789062" xlink:href="#f"/>
  <use x="105.1875" y="572.789062" xlink:href="#e"/>
  <use x="107.964844" y="572.789062" xlink:href="#b"/>
  <use x="70" y="577.054688" xlink:href="#r"/>
  <use x="71.855469" y="577.054688" xlink:href="#c"/>
  <use x="73.957031" y="577.054688" xlink:href="#d"/>
  <use x="76.886719" y="577.054688" xlink:href="#q"/>
  <use x="82.8125" y="577.054688" xlink:href="#b"/>
  <use x="84.851563" y="577.054688" xlink:href="#p"/>
  <use x="87.886719" y="577.054688" xlink:href="#a"/>
  <use x="92.261719" y="577.054688" xlink:href="#o"/>
  <use x="95.832031" y="577.054688" xlink:href="#d"/>
  <use x="98.761719" y="577.054688" xlink:href="#n"/>
  <use x="101.796875" y="577.054688" xlink:href="#m"/>
  <use x="106.316406" y="577.054688" xlink:href="#l"/>
  <use x="109.441406" y="577.054688" xlink:href="#c"/>
  <use x="111.542969" y="577.054688" xlink:href="#d"/>
  <use x="114.472656" y="577.054688" xlink:href="#f"/>
  <use x="115.933594" y="577.054688" xlink:href="#a"/>
  <use x="118.824219" y="577.054688" xlink:href="#k"/>
  <use x="121.351562" y="577.054688" xlink:href="#b"/>
 </g>
</svg>
